<svg width="80" height="64" viewBox="0 0 80 64" fill="none" xmlns="http://www.w3.org/2000/svg">
<path d="M3.66425 61.0537L-0.00012207 51.2794H1.83202L4.55294 58.8615L7.16455 51.2794H8.88738L5.34601 61.0537H3.66425Z" fill="#202020"/>
<path d="M10.1999 53.6532H11.7039V61.0537H10.1999V53.6532ZM10.952 52.7735C10.6602 52.7735 10.4277 52.6851 10.2546 52.5081C10.0814 52.3314 9.99487 52.108 9.99487 51.8379C9.99487 51.5681 10.0814 51.3446 10.2546 51.1677C10.4277 50.991 10.6602 50.9023 10.952 50.9023C11.2435 50.9023 11.4761 50.991 11.6493 51.1677C11.8224 51.3446 11.909 51.5681 11.909 51.8379C11.909 52.108 11.8224 52.3314 11.6493 52.5081C11.4761 52.6851 11.2435 52.7735 10.952 52.7735Z" fill="#202020"/>
<path d="M16.4894 61.2073C15.9698 61.2073 15.523 61.1466 15.1495 61.0256C14.7756 60.9049 14.4611 60.7443 14.2059 60.544C13.9507 60.3439 13.7548 60.1066 13.6181 59.8319C13.4814 59.5573 13.3901 59.2663 13.3446 58.9592H14.8487C14.876 59.0988 14.9283 59.2293 15.0059 59.3501C15.0833 59.4712 15.1858 59.5759 15.3135 59.6643C15.4411 59.7529 15.6007 59.8227 15.7921 59.8737C15.9835 59.925 16.2159 59.9505 16.4894 59.9505C16.7903 59.9505 17.0453 59.925 17.2551 59.8737C17.4647 59.8227 17.6332 59.7529 17.761 59.6643C17.8885 59.5759 17.9819 59.4737 18.0413 59.3572C18.1005 59.2409 18.1302 59.1128 18.1302 58.9732C18.1302 58.8428 18.1028 58.7266 18.0481 58.6241C17.9935 58.5218 17.8953 58.4264 17.7542 58.3378C17.6127 58.2494 17.4213 58.1702 17.1798 58.1004C16.9383 58.0306 16.6306 57.9678 16.2569 57.9119C15.8557 57.856 15.4889 57.7746 15.1563 57.6676C14.8234 57.5607 14.5386 57.4186 14.3017 57.2416C14.0646 57.065 13.88 56.8485 13.748 56.5924C13.6158 56.3365 13.5497 56.0269 13.5497 55.6638C13.5497 55.366 13.6133 55.0868 13.7411 54.826C13.8687 54.5655 14.0578 54.3352 14.3085 54.1349C14.5592 53.9347 14.8669 53.7788 15.2314 53.6671C15.5959 53.5553 16.0153 53.4995 16.4894 53.4995C16.9633 53.4995 17.3713 53.5623 17.7131 53.688C18.0549 53.8137 18.3398 53.979 18.5677 54.1837C18.7955 54.3886 18.9731 54.6259 19.1009 54.8958C19.2285 55.166 19.315 55.4498 19.3608 55.7476H17.8567C17.7928 55.4498 17.6517 55.21 17.4328 55.0285C17.214 54.8469 16.8996 54.7562 16.4894 54.7562C16.2159 54.7562 15.9903 54.782 15.8125 54.8331C15.6349 54.8843 15.4889 54.9494 15.3751 55.0285C15.261 55.1077 15.1789 55.2031 15.1289 55.3147C15.0787 55.4264 15.0537 55.5429 15.0537 55.6638C15.0537 55.8035 15.0833 55.9269 15.1426 56.0338C15.2018 56.141 15.2998 56.2341 15.4365 56.3131C15.5732 56.3924 15.7532 56.4597 15.9767 56.5156C16.1999 56.5714 16.4757 56.6227 16.8038 56.6692C17.2322 56.7251 17.6196 56.8066 17.966 56.9136C18.3124 57.0207 18.6108 57.1649 18.8617 57.3464C19.1123 57.528 19.3037 57.7513 19.4359 58.0166C19.568 58.282 19.6342 58.6009 19.6342 58.9732C19.6342 59.2802 19.568 59.5713 19.4359 59.8458C19.3037 60.1206 19.1078 60.3579 18.848 60.558C18.5882 60.7583 18.2622 60.9164 17.8704 61.0327C17.4784 61.149 17.018 61.2073 16.4894 61.2073Z" fill="#202020"/>
<path d="M23.6677 61.2073C22.8016 61.2073 22.1521 60.9558 21.7193 60.4533C21.2862 59.9505 21.0698 59.178 21.0698 58.1353V53.6531H22.5738V57.9817C22.5738 58.6055 22.699 59.0757 22.9498 59.3921C23.2005 59.7086 23.6082 59.8668 24.1735 59.8668C24.4833 59.8668 24.7499 59.8133 24.9734 59.7062C25.1967 59.5993 25.3789 59.4597 25.5203 59.2873C25.6616 59.1152 25.7686 58.9151 25.8417 58.6869C25.9145 58.4588 25.9511 58.224 25.9511 57.9817V53.6531H27.4551V61.0537H26.0604V59.783C25.9693 59.9784 25.8506 60.1624 25.7049 60.3345C25.559 60.5069 25.3881 60.658 25.1922 60.7884C24.9961 60.9188 24.7704 61.0212 24.5154 61.0955C24.2601 61.17 23.9774 61.2073 23.6677 61.2073Z" fill="#202020"/>
<path d="M31.8985 59.9646C32.1628 59.9646 32.4113 59.9251 32.6437 59.846C32.8761 59.7669 33.079 59.6552 33.2521 59.5109C33.4252 59.3666 33.5619 59.1896 33.6623 58.9801C33.7626 58.7708 33.8128 58.5312 33.8128 58.2611V57.8282H31.8302C31.4289 57.8282 31.1192 57.9167 30.9004 58.0935C30.6816 58.2705 30.5722 58.5264 30.5722 58.8615C30.5722 59.1781 30.6769 59.4411 30.8867 59.6505C31.0963 59.8599 31.4337 59.9646 31.8985 59.9646ZM31.502 61.2074C31.11 61.2074 30.759 61.1491 30.4492 61.0328C30.1392 60.9165 29.8794 60.7536 29.6698 60.5441C29.46 60.3346 29.3007 60.0903 29.1913 59.8111C29.0819 59.5318 29.0272 59.2245 29.0272 58.8894C29.0272 58.5264 29.0819 58.21 29.1913 57.9399C29.3007 57.67 29.46 57.4466 29.6698 57.2696C29.8794 57.0929 30.1437 56.9603 30.4629 56.8718C30.7819 56.7833 31.1465 56.7391 31.5567 56.7391H33.8128V56.3062C33.8128 56.0178 33.7808 55.778 33.717 55.5872C33.6532 55.3964 33.5575 55.2428 33.4299 55.1263C33.3021 55.01 33.145 54.9263 32.9582 54.875C32.7713 54.8239 32.5548 54.7982 32.3087 54.7982C32.0808 54.7982 31.8825 54.8216 31.714 54.8681C31.5451 54.9147 31.4063 54.9751 31.2969 55.0495C31.1875 55.1242 31.1056 55.215 31.0508 55.3219C30.9961 55.4289 30.9596 55.5477 30.9415 55.6779H29.4374C29.4555 55.3706 29.5353 55.0844 29.6767 54.8192C29.8179 54.5539 30.0138 54.3234 30.2645 54.128C30.5152 53.9325 30.8184 53.7789 31.1739 53.6671C31.5293 53.5554 31.9304 53.4996 32.3771 53.4996C32.8236 53.4996 33.227 53.5509 33.5872 53.6532C33.9472 53.7558 34.2548 53.9163 34.5101 54.135C34.7652 54.3537 34.9634 54.6376 35.1049 54.9866C35.2461 55.3357 35.3168 55.7617 35.3168 56.2644V59.1687C35.3168 59.5596 35.3213 59.9018 35.3305 60.195C35.3394 60.4882 35.3623 60.7744 35.3988 61.0537H34.0315C34.0041 60.8583 33.9858 60.6767 33.9769 60.5092C33.9676 60.3416 33.9632 60.1462 33.9632 59.9227C33.8628 60.1091 33.7351 60.2788 33.5803 60.4324C33.4252 60.586 33.2454 60.721 33.0402 60.8373C32.8352 60.9538 32.6027 61.0446 32.343 61.1095C32.0832 61.1747 31.8028 61.2074 31.502 61.2074" fill="#202020"/>
<path d="M39.487 61.1235C39.0857 61.1235 38.7439 61.0817 38.4615 60.9978C38.1788 60.914 37.9465 60.7745 37.7641 60.5789C37.5817 60.3835 37.4474 60.1275 37.3609 59.811C37.2741 59.4946 37.231 59.1082 37.231 58.652V51.2794H38.735V58.5404C38.735 58.7825 38.7508 58.9825 38.7828 59.1407C38.8147 59.2992 38.8693 59.4248 38.9469 59.5177C39.0243 59.6109 39.1314 59.6783 39.2682 59.7203C39.4049 59.7621 39.569 59.783 39.7604 59.783C39.8606 59.783 39.9471 59.7808 40.0202 59.7761C40.093 59.7715 40.166 59.7645 40.239 59.7552V61.0817C40.1932 61.0908 40.1386 61.0978 40.0749 61.1026C40.011 61.1072 39.945 61.1117 39.8766 61.1166C39.8083 61.1212 39.74 61.1235 39.6716 61.1235H39.487Z" fill="#202020"/>
<path d="M45.1611 61.0537V51.2794H46.8429V59.6016H51.4508V61.0537H45.1611Z" fill="#202020"/>
<path d="M55.3474 59.9646C55.6116 59.9646 55.86 59.9251 56.0926 59.846C56.325 59.7669 56.5277 59.6552 56.701 59.5109C56.874 59.3666 57.0108 59.1896 57.1111 58.9801C57.2113 58.7708 57.2615 58.5312 57.2615 58.2611V57.8282H55.2789C54.8778 57.8282 54.568 57.9167 54.3493 58.0935C54.1304 58.2705 54.021 58.5264 54.021 58.8615C54.021 59.1781 54.1258 59.4411 54.3356 59.6505C54.5451 59.8599 54.8824 59.9646 55.3474 59.9646ZM54.9509 61.2074C54.5588 61.2074 54.2078 61.1491 53.898 61.0328C53.5879 60.9165 53.3282 60.7536 53.1186 60.5441C52.9088 60.3346 52.7494 60.0903 52.6401 59.8111C52.5307 59.5318 52.476 59.2245 52.476 58.8894C52.476 58.5264 52.5307 58.21 52.6401 57.9399C52.7494 57.67 52.9088 57.4466 53.1186 57.2696C53.3282 57.0929 53.5925 56.9603 53.9116 56.8718C54.2307 56.7833 54.5953 56.7391 55.0055 56.7391H57.2615V56.3062C57.2615 56.0178 57.2295 55.778 57.1658 55.5872C57.102 55.3964 57.0062 55.2428 56.8787 55.1263C56.751 55.01 56.5937 54.9263 56.407 54.875C56.22 54.8239 56.0036 54.7982 55.7575 54.7982C55.5296 54.7982 55.3312 54.8216 55.1627 54.8681C54.994 54.9147 54.8551 54.9751 54.7457 55.0495C54.6363 55.1242 54.5544 55.215 54.4996 55.3219C54.4449 55.4289 54.4084 55.5477 54.3902 55.6779H52.8861C52.9044 55.3706 52.9841 55.0844 53.1254 54.8192C53.2667 54.5539 53.4626 54.3234 53.7134 54.128C53.964 53.9325 54.2672 53.7789 54.6227 53.6671C54.9782 53.5554 55.3792 53.4996 55.8259 53.4996C56.2724 53.4996 56.6758 53.5509 57.036 53.6532C57.396 53.7558 57.7036 53.9163 57.9589 54.135C58.214 54.3537 58.4122 54.6376 58.5537 54.9866C58.6949 55.3357 58.7655 55.7617 58.7655 56.2644V59.1687C58.7655 59.5596 58.7701 59.9018 58.7793 60.195C58.7882 60.4882 58.8112 60.7744 58.8477 61.0537H57.4804C57.453 60.8583 57.4346 60.6767 57.4257 60.5092C57.4164 60.3416 57.412 60.1462 57.412 59.9227C57.3115 60.1091 57.184 60.2788 57.0291 60.4324C56.874 60.586 56.6942 60.721 56.489 60.8373C56.2839 60.9538 56.0515 61.0446 55.7917 61.1095C55.5319 61.1747 55.2516 61.2074 54.9509 61.2074" fill="#202020"/>
<path d="M61.4865 64C61.4133 64 61.345 63.9976 61.2813 63.993C61.2174 63.9882 61.1491 63.9766 61.0763 63.9581V62.6176C61.1491 62.6362 61.2174 62.6477 61.2813 62.6525C61.345 62.6571 61.4133 62.6595 61.4865 62.6595C61.6231 62.6595 61.7394 62.6362 61.8351 62.5897C61.9308 62.543 62.0242 62.4616 62.1154 62.3453C62.2064 62.2288 62.2976 62.0661 62.3888 61.8566C62.4799 61.6471 62.5847 61.3794 62.7034 61.0538L59.6406 53.6532H61.3086L63.469 59.2944L65.4653 53.6532H67.024L64.2757 61.0538C64.0752 61.575 63.8882 62.0217 63.7152 62.3942C63.5419 62.7665 63.3505 63.0736 63.1408 63.3158C62.931 63.5577 62.6964 63.7322 62.4367 63.8394C62.1769 63.9463 61.86 64 61.4865 64Z" fill="#202020"/>
<path d="M69.0477 56.6414H72.9581C72.9491 56.2971 72.8943 56.0084 72.7941 55.7756C72.6938 55.543 72.557 55.3568 72.384 55.2172C72.2107 55.0775 72.0056 54.9751 71.7687 54.9099C71.5315 54.8449 71.2854 54.8122 71.0303 54.8122C70.775 54.8122 70.5289 54.8471 70.2918 54.9169C70.0548 54.9866 69.8453 55.0963 69.663 55.245C69.4805 55.394 69.3325 55.5826 69.2187 55.8105C69.1045 56.0388 69.0477 56.3157 69.0477 56.6414ZM71.0987 61.2074C70.6065 61.2074 70.1437 61.1327 69.7108 60.9839C69.2778 60.8351 68.8995 60.6023 68.576 60.2858C68.2523 59.9694 67.9949 59.5736 67.8035 59.0989C67.6121 58.6242 67.5164 58.0656 67.5164 57.4233V57.144C67.5164 56.5297 67.6073 55.9968 67.7898 55.5452C67.9721 55.0938 68.2205 54.7144 68.535 54.4072C68.8495 54.1 69.2139 53.8721 69.6288 53.723C70.0435 53.5743 70.4879 53.4996 70.962 53.4996C72.0648 53.4996 72.9126 53.8023 73.5051 54.4072C74.0976 55.0124 74.3938 55.8781 74.3938 57.0044V57.7864H69.034C69.043 58.1682 69.1069 58.4915 69.2255 58.7568C69.3438 59.0221 69.5011 59.2385 69.6971 59.4061C69.8931 59.5736 70.1119 59.697 70.3535 59.7762C70.5949 59.8553 70.8434 59.8948 71.0987 59.8948C71.5998 59.8948 71.9874 59.8111 72.261 59.6434C72.5343 59.476 72.7258 59.2479 72.8351 58.9592H74.2571C74.1841 59.3316 74.0566 59.6574 73.8743 59.9367C73.6919 60.216 73.4641 60.4511 73.1906 60.6418C72.9171 60.8327 72.6027 60.9748 72.2472 61.0677C71.8917 61.1607 71.509 61.2074 71.0987 61.2074" fill="#202020"/>
<path d="M75.8979 61.0537V53.6532H77.2926V54.9238C77.3654 54.7284 77.4635 54.5468 77.5866 54.3793C77.7096 54.2116 77.8553 54.0629 78.0241 53.9324C78.1927 53.8022 78.384 53.6975 78.5983 53.6183C78.8125 53.5393 79.0427 53.4996 79.2888 53.4996C79.4618 53.4996 79.6034 53.5089 79.7127 53.5274C79.8221 53.5462 79.9177 53.5694 79.9999 53.5972V54.9797C79.9087 54.9332 79.7969 54.8983 79.6648 54.8749C79.5326 54.8518 79.3618 54.84 79.1521 54.84C78.8877 54.84 78.6484 54.8867 78.4342 54.9797C78.2201 55.0728 78.0377 55.2031 77.8874 55.3706C77.737 55.5382 77.6184 55.7385 77.5318 55.971C77.4452 56.2038 77.4019 56.4552 77.4019 56.7251V61.0537H75.8979Z" fill="#202020"/>
<path d="M47.0067 40.2141L64.8899 1.72389C65.2616 0.923807 64.6922 -1.08611e-05 63.8274 -1.08611e-05H52.8023C51.9073 -1.08611e-05 51.0936 0.531992 50.7165 1.36361L33.0997 40.2141H47.0067Z" fill="#9061FF"/>
<path d="M46.8783 40.2141L29.21 1.37997C28.8271 0.538338 28.0008 -1.08611e-05 27.092 -1.08611e-05H16.2866C15.3691 -1.08611e-05 14.7647 0.976254 15.1581 1.82264L33.0034 40.2141H46.8783Z" fill="#D1F452"/>
<g opacity="0.800003">
<path d="M33.0725 40.2141H47.0165L54.1445 24.9233L40.0351 25.0265L33.0725 40.2141Z" fill="#56EA6E"/>
</g>
</svg>
